<svg version="1.1" id="Layer_1" xmlns="http://www.w3.org/2000/svg" xmlns:xlink="http://www.w3.org/1999/xlink" x="0px" y="0px"
	 width="100%" viewBox="0 0 250 54" enable-background="new 0 0 250 54" xml:space="preserve">
<path fill="#F9F9FA" opacity="1.000000" stroke="none" 
	d="
M186.000000,55.000000 
	C124.000008,55.000000 62.500015,55.000000 1.000016,55.000000 
	C1.000011,37.000008 1.000011,19.000019 1.000005,1.000021 
	C84.333313,1.000014 167.666626,1.000014 250.999954,1.000007 
	C250.999969,18.999979 250.999969,36.999958 250.999985,54.999969 
	C229.500000,55.000000 208.000000,55.000000 186.000000,55.000000 
M38.624462,23.697422 
	C39.172409,22.909763 39.720360,22.122105 40.655552,21.203739 
	C40.655552,21.203739 41.025406,21.029819 41.672028,20.967207 
	C42.102203,20.301483 42.532379,19.635759 43.100121,18.321718 
	C43.102676,17.880823 43.105232,17.439928 43.494419,16.701162 
	C42.997532,16.406731 42.500645,16.112299 41.265060,15.744920 
	C39.906162,16.596817 38.547268,17.448715 36.336624,18.180502 
	C35.198685,18.149586 34.060749,18.118670 32.999447,17.999924 
	C32.999447,17.999924 32.920353,18.085995 32.809372,17.421513 
	C32.508698,15.968528 32.136715,14.525891 31.923998,13.060142 
	C31.602087,10.841948 31.391069,8.607660 31.176468,6.755888 
	C24.117277,6.912764 28.750454,16.599310 21.327879,15.524480 
	C21.006929,14.972638 20.600073,14.273335 20.193457,13.573895 
	C18.891474,11.334295 17.281960,8.893042 14.527365,10.787429 
	C13.795082,11.291031 14.884230,14.618026 15.328501,16.605925 
	C15.732621,18.414167 16.396725,20.164310 16.971249,21.961084 
	C16.971249,21.961084 16.936117,21.954016 16.095619,21.999792 
	C14.615094,21.931257 13.076232,21.579491 11.669499,21.869230 
	C10.078125,22.196997 8.605343,23.100548 7.080992,23.753727 
	C8.275326,25.161806 9.351991,26.696470 10.694869,27.944748 
	C12.245882,29.386496 14.031525,30.575832 16.417099,32.416172 
	C14.272704,33.563427 13.251156,33.761162 12.943871,34.338837 
	C11.967443,36.174461 11.257211,38.151688 10.444100,40.074188 
	C12.497708,39.867981 14.560012,39.723015 16.601744,39.433147 
	C17.876362,39.252193 19.119944,38.852612 20.377451,38.551132 
	C20.696861,39.927517 20.926830,41.332668 21.357996,42.673107 
	C21.915123,44.405140 22.632998,46.085461 23.281652,47.788052 
	C24.458132,46.898636 25.577145,45.916046 26.826807,45.145287 
	C28.149775,44.329308 29.597025,43.714836 31.475376,43.538319 
	C35.783833,49.651958 37.882927,49.783779 42.869164,43.997864 
	C44.470333,42.069809 43.921013,41.085316 41.363087,40.273701 
	C40.639519,39.508739 39.915947,38.743774 39.087688,37.309120 
	C38.980160,36.870289 38.872627,36.431454 39.320557,35.506569 
	C40.554234,34.592838 41.787907,33.679111 43.399036,33.326347 
	C44.469627,32.985096 45.540218,32.643841 46.610809,32.302589 
	C46.139606,31.140730 45.668400,29.978870 44.619164,28.359533 
	C43.412136,28.252769 42.205105,28.146006 40.735798,27.621775 
	C40.162445,27.618832 39.589088,27.615891 38.583603,27.606712 
	C38.583603,27.606712 38.286434,27.920506 38.219795,27.207172 
	C38.058773,26.511431 37.897751,25.815689 38.052498,24.606478 
	C38.078419,24.407301 38.104336,24.208126 38.624462,23.697422 
M218.322464,35.610264 
	C215.321396,35.342621 212.320328,35.074978 208.394180,34.724838 
	C212.082947,30.361887 215.196640,26.927387 217.986359,23.247295 
	C218.987900,21.926111 219.208618,20.013041 219.785706,18.370104 
	C218.327499,17.861217 216.889832,16.999466 215.407043,16.913200 
	C211.753586,16.700649 208.071411,16.710915 204.418625,16.929672 
	C203.383987,16.991634 202.410843,18.080292 201.409485,18.698092 
	C202.362427,19.396200 203.250519,20.551579 204.281708,20.697792 
	C206.469238,21.007969 208.731308,20.792414 211.802155,20.792414 
	C207.848557,27.538124 201.185318,31.221159 199.666504,38.643917 
	C201.379913,38.899376 202.348053,39.179111 203.311829,39.164818 
	C208.464935,39.088371 213.616959,38.938511 219.389542,38.817360 
	C220.570984,38.896538 221.752411,38.975719 223.873459,39.159050 
	C229.583893,39.120323 235.294312,39.081596 241.366013,39.494781 
	C241.869629,38.952026 242.373245,38.409267 242.854355,37.104191 
	C241.177872,36.481556 239.545624,35.620106 237.813248,35.299225 
	C235.831665,34.932194 233.761078,35.045670 231.568970,34.942844 
	C233.888702,27.697216 241.927689,24.947687 243.352509,16.849215 
	C236.984634,16.849215 231.525558,16.770542 226.073456,16.929777 
	C225.205627,16.955124 224.369019,18.049545 223.517975,18.649723 
	C224.446625,19.367699 225.306610,20.559633 226.318054,20.706161 
	C228.504425,21.022900 230.768463,20.803646 234.035629,20.803646 
	C229.624527,26.458918 226.008026,31.095480 221.732346,35.851284 
	C220.840866,35.887131 219.949402,35.922977 218.322464,35.610264 
M125.644409,30.784960 
	C126.982948,33.072784 127.945183,35.755203 129.788834,37.513378 
	C131.074692,38.739643 133.658264,39.288429 135.489685,39.009048 
	C136.631332,38.834892 138.150787,36.623619 138.289871,35.207619 
	C138.775650,30.261997 138.926193,25.257950 138.752914,20.291847 
	C138.711975,19.118349 136.909027,18.006332 135.916626,16.866034 
	C134.987457,18.086016 133.432678,19.222212 133.255814,20.542948 
	C132.853836,23.544392 133.129135,26.636539 133.129135,29.691816 
	C132.673203,29.819256 132.217270,29.946695 131.761322,30.074137 
	C129.569473,26.504076 127.715233,22.648420 125.040642,19.486725 
	C123.740387,17.949665 120.942429,17.355871 118.740997,17.130358 
	C118.184258,17.073328 116.930786,20.004774 116.665611,21.669390 
	C116.015289,25.751806 115.650780,29.889502 115.381119,34.018658 
	C115.248230,36.053368 113.670265,39.097301 117.681847,39.252151 
	C121.393936,39.395435 121.119789,36.452099 121.362663,33.988613 
	C121.561951,31.967264 121.812706,29.950989 122.154732,26.922316 
	C123.724693,28.568699 124.471283,29.351633 125.644409,30.784960 
M92.577301,34.968952 
	C92.396080,37.348915 92.726624,39.795464 95.762360,39.114071 
	C97.007530,38.834587 98.404297,36.604202 98.667328,35.077785 
	C99.396828,30.844467 99.542343,26.512308 99.967354,22.224033 
	C100.208740,19.788465 101.288651,17.091749 97.160324,16.814346 
	C93.582367,16.573925 92.883720,18.605024 93.115166,21.453903 
	C93.392281,24.865038 91.995842,25.976326 88.526131,26.139919 
	C83.771393,26.364103 83.580704,23.908733 83.611839,20.300982 
	C83.621666,19.161819 81.755608,18.006464 80.748070,16.858521 
	C79.812744,17.914368 78.241058,18.869202 78.054596,20.043915 
	C77.329254,24.613443 77.003471,29.249353 76.611122,33.867538 
	C76.411896,36.212662 75.259544,39.035347 79.402794,39.351601 
	C83.313911,39.650127 83.877380,37.425255 83.550987,34.375103 
	C83.209206,31.181145 84.503799,29.871576 87.793045,29.964848 
	C90.729912,30.048124 93.306213,30.026342 92.577301,34.968952 
M183.732681,26.318155 
	C186.375565,18.369232 185.336746,16.886713 177.115189,16.874249 
	C166.916016,16.858786 166.743851,16.856674 166.598450,28.711163 
	C166.453201,40.553169 164.297440,39.082180 176.425903,39.150936 
	C185.069656,39.199944 187.580597,35.103390 183.732681,26.318155 
M162.401031,36.234055 
	C161.752228,35.478123 161.089401,34.733719 160.456848,33.964436 
	C155.314285,27.710402 155.322189,27.713936 160.386078,21.402563 
	C161.279037,20.289621 162.096176,19.115856 163.044128,17.841393 
	C156.133347,13.651464 154.744659,21.928864 150.389725,23.503548 
	C150.146912,22.307678 149.965637,21.826408 149.965866,21.345226 
	C149.966904,19.199570 150.482788,16.784164 147.092728,16.745825 
	C143.776077,16.708313 144.176590,19.014992 144.043411,21.227720 
	C143.784805,25.524187 143.371918,29.815235 142.882584,34.092472 
	C142.598221,36.578163 141.509781,39.198929 145.686234,39.376308 
	C149.056808,39.519466 150.127792,38.005566 149.797256,34.852085 
	C149.691971,33.847572 150.159805,32.782986 150.641174,30.354828 
	C152.837097,33.464390 154.171432,35.654942 155.804199,37.594234 
	C158.155319,40.386745 161.329987,39.975079 162.401031,36.234055 
M61.460598,24.652800 
	C61.380268,28.311401 61.069218,31.987656 61.347046,35.618855 
	C61.441944,36.859173 63.015217,37.986378 63.913021,39.165264 
	C64.981300,38.078674 66.809158,37.094193 66.971596,35.885830 
	C67.411446,32.613811 67.291100,29.238928 67.115250,25.919550 
	C66.943352,22.674522 67.240028,20.278601 71.496986,20.697142 
	C72.418358,20.787729 73.471024,19.542971 74.463211,18.913277 
	C73.551094,18.223198 72.662239,16.975901 71.722939,16.936668 
	C66.903709,16.735386 62.066936,16.736195 57.247635,16.937695 
	C56.284248,16.977976 55.370193,18.198112 54.433395,18.874224 
	C55.438080,19.511839 56.463078,20.119949 57.442551,20.794186 
	C58.809418,21.735090 60.142277,22.725399 61.460598,24.652800 
M104.677856,17.749802 
	C104.365211,23.711422 103.887589,29.672693 103.874947,35.634949 
	C103.872314,36.871815 105.595200,38.112339 106.522835,39.351181 
	C107.811417,38.253300 110.019165,37.303017 110.223419,36.031017 
	C110.958649,31.452408 111.057747,26.767529 111.322266,22.118538 
	C111.626495,16.771280 111.013954,16.304234 104.677856,17.749802 
M196.269836,17.166792 
	C193.923935,16.802147 190.733002,15.345429 190.402786,19.201767 
	C189.906769,24.994499 190.053650,30.857000 190.248962,36.679031 
	C190.279800,37.598118 191.978836,39.128139 192.949265,39.162296 
	C193.930786,39.196846 195.774780,37.790253 195.847107,36.901527 
	C196.368423,30.494835 196.535553,24.059322 196.269836,17.166792 
z"/>
<path fill="#5A5A5A" opacity="1.000000" stroke="none" 
	d="
M125.431137,30.459763 
	C124.471283,29.351633 123.724693,28.568699 122.154732,26.922316 
	C121.812706,29.950989 121.561951,31.967264 121.362663,33.988613 
	C121.119789,36.452099 121.393936,39.395435 117.681847,39.252151 
	C113.670265,39.097301 115.248230,36.053368 115.381119,34.018658 
	C115.650780,29.889502 116.015289,25.751806 116.665611,21.669390 
	C116.930786,20.004774 118.184258,17.073328 118.740997,17.130358 
	C120.942429,17.355871 123.740387,17.949665 125.040642,19.486725 
	C127.715233,22.648420 129.569473,26.504076 131.761322,30.074137 
	C132.217270,29.946695 132.673203,29.819256 133.129135,29.691816 
	C133.129135,26.636539 132.853836,23.544392 133.255814,20.542948 
	C133.432678,19.222212 134.987457,18.086016 135.916626,16.866034 
	C136.909027,18.006332 138.711975,19.118349 138.752914,20.291847 
	C138.926193,25.257950 138.775650,30.261997 138.289871,35.207619 
	C138.150787,36.623619 136.631332,38.834892 135.489685,39.009048 
	C133.658264,39.288429 131.074692,38.739643 129.788834,37.513378 
	C127.945183,35.755203 126.982948,33.072784 125.431137,30.459763 
z"/>
<path fill="#5B5B5B" opacity="1.000000" stroke="none" 
	d="
M92.587708,34.538765 
	C93.306213,30.026342 90.729912,30.048124 87.793045,29.964848 
	C84.503799,29.871576 83.209206,31.181145 83.550987,34.375103 
	C83.877380,37.425255 83.313911,39.650127 79.402794,39.351601 
	C75.259544,39.035347 76.411896,36.212662 76.611122,33.867538 
	C77.003471,29.249353 77.329254,24.613443 78.054596,20.043915 
	C78.241058,18.869202 79.812744,17.914368 80.748070,16.858521 
	C81.755608,18.006464 83.621666,19.161819 83.611839,20.300982 
	C83.580704,23.908733 83.771393,26.364103 88.526131,26.139919 
	C91.995842,25.976326 93.392281,24.865038 93.115166,21.453903 
	C92.883720,18.605024 93.582367,16.573925 97.160324,16.814346 
	C101.288651,17.091749 100.208740,19.788465 99.967354,22.224033 
	C99.542343,26.512308 99.396828,30.844467 98.667328,35.077785 
	C98.404297,36.604202 97.007530,38.834587 95.762360,39.114071 
	C92.726624,39.795464 92.396080,37.348915 92.587708,34.538765 
z"/>
<path fill="#525252" opacity="1.000000" stroke="none" 
	d="
M183.829758,26.719864 
	C187.580597,35.103390 185.069656,39.199944 176.425903,39.150936 
	C164.297440,39.082180 166.453201,40.553169 166.598450,28.711163 
	C166.743851,16.856674 166.916016,16.858786 177.115189,16.874249 
	C185.336746,16.886713 186.375565,18.369232 183.829758,26.719864 
M177.047256,28.083635 
	C174.524719,27.755186 172.161057,27.924606 172.197098,31.231279 
	C172.212387,32.633411 173.068039,35.221523 173.509140,35.214531 
	C175.305450,35.186047 177.947327,34.866482 178.639572,33.690205 
	C179.352402,32.478996 178.160416,30.146795 177.047256,28.083635 
z"/>
<path fill="#5D5D5D" opacity="1.000000" stroke="none" 
	d="
M162.585602,36.548676 
	C161.329987,39.975079 158.155319,40.386745 155.804199,37.594234 
	C154.171432,35.654942 152.837097,33.464390 150.641174,30.354828 
	C150.159805,32.782986 149.691971,33.847572 149.797256,34.852085 
	C150.127792,38.005566 149.056808,39.519466 145.686234,39.376308 
	C141.509781,39.198929 142.598221,36.578163 142.882584,34.092472 
	C143.371918,29.815235 143.784805,25.524187 144.043411,21.227720 
	C144.176590,19.014992 143.776077,16.708313 147.092728,16.745825 
	C150.482788,16.784164 149.966904,19.199570 149.965866,21.345226 
	C149.965637,21.826408 150.146912,22.307678 150.389725,23.503548 
	C154.744659,21.928864 156.133347,13.651464 163.044128,17.841393 
	C162.096176,19.115856 161.279037,20.289621 160.386078,21.402563 
	C155.322189,27.713936 155.314285,27.710402 160.456848,33.964436 
	C161.089401,34.733719 161.752228,35.478123 162.585602,36.548676 
z"/>
<path fill="#5A5A5A" opacity="1.000000" stroke="none" 
	d="
M241.004745,39.042870 
	C235.294312,39.081596 229.583893,39.120323 223.355835,38.824921 
	C222.689316,37.571209 222.540421,36.651630 222.391525,35.732048 
	C226.008026,31.095480 229.624527,26.458918 234.035629,20.803646 
	C230.768463,20.803646 228.504425,21.022900 226.318054,20.706161 
	C225.306610,20.559633 224.446625,19.367699 223.517975,18.649719 
	C224.369019,18.049545 225.205627,16.955124 226.073456,16.929777 
	C231.525558,16.770542 236.984634,16.849215 243.352509,16.849215 
	C241.927689,24.947687 233.888702,27.697216 231.568970,34.942844 
	C233.761078,35.045670 235.831665,34.932194 237.813248,35.299225 
	C239.545624,35.620106 241.177872,36.481556 242.585999,37.571518 
	C241.880020,38.373516 241.442383,38.708191 241.004745,39.042870 
z"/>
<path fill="#595959" opacity="1.000000" stroke="none" 
	d="
M218.769348,38.814034 
	C213.616959,38.938511 208.464935,39.088371 203.311829,39.164818 
	C202.348053,39.179111 201.379913,38.899376 199.666504,38.643917 
	C201.185318,31.221159 207.848557,27.538124 211.802155,20.792414 
	C208.731308,20.792414 206.469238,21.007969 204.281708,20.697792 
	C203.250519,20.551579 202.362427,19.396200 201.409485,18.698090 
	C202.410843,18.080292 203.383987,16.991634 204.418625,16.929672 
	C208.071411,16.710915 211.753586,16.700649 215.407043,16.913200 
	C216.889832,16.999466 218.327499,17.861217 219.785706,18.370102 
	C219.208618,20.013041 218.987900,21.926111 217.986359,23.247295 
	C215.196640,26.927387 212.082947,30.361887 208.394180,34.724838 
	C212.320328,35.074978 215.321396,35.342621 218.645081,36.141190 
	C218.901566,37.386089 218.835449,38.100063 218.769348,38.814034 
z"/>
<path fill="#595959" opacity="1.000000" stroke="none" 
	d="
M61.475143,24.173681 
	C60.142277,22.725399 58.809418,21.735090 57.442551,20.794186 
	C56.463078,20.119949 55.438080,19.511839 54.433395,18.874222 
	C55.370193,18.198112 56.284248,16.977976 57.247635,16.937695 
	C62.066936,16.736195 66.903709,16.735386 71.722939,16.936668 
	C72.662239,16.975901 73.551094,18.223198 74.463211,18.913277 
	C73.471024,19.542971 72.418358,20.787729 71.496986,20.697142 
	C67.240028,20.278601 66.943352,22.674522 67.115250,25.919550 
	C67.291100,29.238928 67.411446,32.613811 66.971596,35.885830 
	C66.809158,37.094193 64.981300,38.078674 63.913021,39.165264 
	C63.015217,37.986378 61.441944,36.859173 61.347046,35.618855 
	C61.069218,31.987656 61.380268,28.311401 61.475143,24.173681 
z"/>
<path fill="#A9A9FE" opacity="1.000000" stroke="none" 
	d="
M30.989994,43.012352 
	C29.597025,43.714836 28.149775,44.329308 26.826807,45.145287 
	C25.577145,45.916046 24.458132,46.898636 23.281654,47.788052 
	C22.632998,46.085461 21.915123,44.405140 21.357996,42.673107 
	C20.926830,41.332668 20.696861,39.927517 20.377453,38.551132 
	C19.119944,38.852612 17.876362,39.252193 16.601744,39.433147 
	C14.560012,39.723015 12.497708,39.867981 10.444101,40.074188 
	C11.257211,38.151688 11.967443,36.174461 12.943871,34.338837 
	C13.251156,33.761162 14.272704,33.563427 16.417099,32.416172 
	C14.031525,30.575832 12.245882,29.386496 10.694869,27.944748 
	C9.351991,26.696470 8.275326,25.161806 7.080992,23.753727 
	C8.605343,23.100548 10.078125,22.196997 11.669499,21.869230 
	C13.076232,21.579491 14.615094,21.931257 16.522461,22.391434 
	C14.757673,31.143698 15.661703,33.458603 23.193510,38.011189 
	C25.685431,39.517422 28.341463,40.752140 30.957893,42.334885 
	C30.993326,42.558762 30.989994,43.012356 30.989994,43.012352 
z"/>
<path fill="#1D1DFF" opacity="1.000000" stroke="none" 
	d="
M30.922461,42.111004 
	C28.341463,40.752140 25.685431,39.517422 23.193510,38.011189 
	C15.661703,33.458603 14.757673,31.143698 16.942711,22.368546 
	C16.936117,21.954016 16.971249,21.961084 17.287302,21.842022 
	C21.893251,17.075039 27.026789,15.980103 32.920353,18.085995 
	C32.920353,18.085995 32.999447,17.999924 33.050365,18.340136 
	C33.670567,19.278843 34.239849,19.877338 34.873192,20.748131 
	C35.536137,21.359007 36.135025,21.697586 36.764938,22.379007 
	C36.727154,23.173903 36.658340,23.625956 36.459492,24.248938 
	C36.798550,24.653225 37.267643,24.886585 37.736732,25.119947 
	C37.897751,25.815689 38.058773,26.511431 37.851532,27.558908 
	C36.417606,27.902483 35.351940,27.894321 34.203438,27.516466 
	C33.592991,25.764267 33.348148,24.165936 32.487156,23.037886 
	C29.331640,18.903620 24.598888,19.377144 22.434475,23.940434 
	C20.827494,25.630074 18.746357,27.190462 21.796247,29.515419 
	C21.520163,35.627197 27.028248,35.120102 29.947105,37.724831 
	C30.955029,38.567066 31.904612,39.118950 32.896820,40.089760 
	C32.933933,41.067421 32.928413,41.626160 32.591751,42.128197 
	C31.814556,42.084667 31.368509,42.097836 30.922461,42.111004 
z"/>
<path fill="#606060" opacity="1.000000" stroke="none" 
	d="
M104.964432,17.487606 
	C111.013954,16.304234 111.626495,16.771280 111.322266,22.118538 
	C111.057747,26.767529 110.958649,31.452408 110.223419,36.031017 
	C110.019165,37.303017 107.811417,38.253300 106.522835,39.351181 
	C105.595200,38.112339 103.872314,36.871815 103.874947,35.634949 
	C103.887589,29.672693 104.365211,23.711422 104.964432,17.487606 
z"/>
<path fill="#5F5F5F" opacity="1.000000" stroke="none" 
	d="
M196.542404,17.399868 
	C196.535553,24.059322 196.368423,30.494835 195.847107,36.901527 
	C195.774780,37.790253 193.930786,39.196846 192.949265,39.162296 
	C191.978836,39.128139 190.279800,37.598118 190.248962,36.679031 
	C190.053650,30.857000 189.906769,24.994499 190.402786,19.201767 
	C190.733002,15.345429 193.923935,16.802147 196.542404,17.399868 
z"/>
<path fill="#A9A9FE" opacity="1.000000" stroke="none" 
	d="
M32.864861,17.753754 
	C27.026789,15.980103 21.893251,17.075039 17.274792,21.831512 
	C16.396725,20.164310 15.732621,18.414167 15.328501,16.605925 
	C14.884230,14.618026 13.795082,11.291031 14.527365,10.787429 
	C17.281960,8.893042 18.891474,11.334295 20.193457,13.573895 
	C20.600073,14.273335 21.006929,14.972638 21.327879,15.524480 
	C28.750454,16.599310 24.117277,6.912764 31.176468,6.755888 
	C31.391069,8.607660 31.602087,10.841948 31.923998,13.060142 
	C32.136715,14.525891 32.508698,15.968528 32.864861,17.753754 
z"/>
<path fill="#6A6AFF" opacity="1.000000" stroke="none" 
	d="
M32.854195,39.670830 
	C31.904612,39.118950 30.955029,38.567066 30.323429,37.551086 
	C31.826845,35.788162 33.466709,34.668793 34.070366,33.140213 
	C34.678394,31.600557 34.256756,29.654274 34.286278,27.886160 
	C35.351940,27.894321 36.417606,27.902483 37.884850,27.915575 
	C38.286434,27.920506 38.583603,27.606712 38.867844,27.900635 
	C39.767414,28.142786 40.382748,28.091013 40.998077,28.039242 
	C42.205105,28.146006 43.412136,28.252769 44.860168,28.940884 
	C44.407978,30.603283 43.714779,31.684334 43.021584,32.765381 
	C41.787907,33.679111 40.554234,34.592838 38.701324,35.815720 
	C36.339455,37.306854 34.596825,38.488842 32.854195,39.670830 
z"/>
<path fill="#1514FE" opacity="1.000000" stroke="none" 
	d="
M32.896820,40.089760 
	C34.596825,38.488842 36.339455,37.306854 38.423592,36.058746 
	C38.872627,36.431454 38.980160,36.870289 38.854813,37.767113 
	C39.479164,39.416096 40.336388,40.607086 41.296982,42.124619 
	C41.450699,42.673885 41.501045,42.896610 41.196301,43.206268 
	C37.595284,47.256840 35.059578,46.146263 32.922897,42.184895 
	C32.928413,41.626160 32.933933,41.067421 32.896820,40.089760 
z"/>
<path fill="#6A6AFF" opacity="1.000000" stroke="none" 
	d="
M32.591751,42.128197 
	C35.059578,46.146263 37.595284,47.256840 41.362534,43.354103 
	C41.999352,43.695671 42.139492,43.963455 42.304264,44.218349 
	C37.882927,49.783779 35.783833,49.651958 31.232685,43.275337 
	C30.989994,43.012356 30.993326,42.558762 30.957893,42.334885 
	C31.368509,42.097836 31.814556,42.084667 32.591751,42.128197 
z"/>
<path fill="#6A6AFF" opacity="1.000000" stroke="none" 
	d="
M36.733913,22.036167 
	C36.135025,21.697586 35.536137,21.359007 35.178886,20.581200 
	C36.009808,19.528187 36.599091,18.914400 37.188374,18.300613 
	C38.547268,17.448715 39.906162,16.596817 41.727329,16.052717 
	C42.495659,16.573355 42.801723,16.786194 43.107784,16.999033 
	C43.105232,17.439928 43.102676,17.880823 42.703259,18.678215 
	C41.879398,19.699749 41.452404,20.364784 41.025406,21.029819 
	C41.025406,21.029819 40.655552,21.203739 40.099346,21.187798 
	C38.606731,21.459959 37.670322,21.748064 36.733913,22.036167 
z"/>
<path fill="#A9A9FE" opacity="1.000000" stroke="none" 
	d="
M43.210312,33.045864 
	C43.714779,31.684334 44.407978,30.603283 45.149185,29.169624 
	C45.668400,29.978870 46.139606,31.140730 46.610809,32.302589 
	C45.540218,32.643841 44.469627,32.985096 43.210312,33.045864 
z"/>
<path fill="#BCBCBC" opacity="1.000000" stroke="none" 
	d="
M219.079437,38.815697 
	C218.835449,38.100063 218.901566,37.386089 219.012802,36.315468 
	C219.949402,35.922977 220.840866,35.887131 222.061935,35.791664 
	C222.540421,36.651630 222.689316,37.571209 222.886032,38.772846 
	C221.752411,38.975719 220.570984,38.896538 219.079437,38.815697 
z"/>
<path fill="#A9A9FE" opacity="1.000000" stroke="none" 
	d="
M42.586716,44.108109 
	C42.139492,43.963455 41.999352,43.695671 41.717621,43.267166 
	C41.501045,42.896610 41.450699,42.673885 41.374237,41.903179 
	C41.348122,41.355198 41.516441,40.914845 41.516441,40.914845 
	C43.921013,41.085316 44.470333,42.069809 42.586716,44.108109 
z"/>
<path fill="#A9A9FE" opacity="1.000000" stroke="none" 
	d="
M36.764938,22.379007 
	C37.670322,21.748064 38.606731,21.459959 39.905724,21.253151 
	C39.720360,22.122105 39.172409,22.909763 37.990913,23.844769 
	C37.101421,24.020746 36.845470,24.049379 36.589523,24.078011 
	C36.658340,23.625956 36.727154,23.173903 36.764938,22.379007 
z"/>
<path fill="#A9A9FE" opacity="1.000000" stroke="none" 
	d="
M36.762497,18.240559 
	C36.599091,18.914400 36.009808,19.528187 35.114830,20.308903 
	C34.239849,19.877338 33.670567,19.278843 33.012047,18.384052 
	C34.060749,18.118670 35.198685,18.149586 36.762497,18.240559 
z"/>
<path fill="#6A6AFF" opacity="1.000000" stroke="none" 
	d="
M41.439766,40.594273 
	C41.516441,40.914845 41.348122,41.355198 41.270866,41.576637 
	C40.336388,40.607086 39.479164,39.416096 38.907158,38.101959 
	C39.915947,38.743774 40.639519,39.508739 41.439766,40.594273 
z"/>
<path fill="#A9A9FE" opacity="1.000000" stroke="none" 
	d="
M40.866936,27.830509 
	C40.382748,28.091013 39.767414,28.142786 39.083908,27.903753 
	C39.589088,27.615891 40.162445,27.618832 40.866936,27.830509 
z"/>
<path fill="#BCBCBC" opacity="1.000000" stroke="none" 
	d="
M241.185379,39.268822 
	C241.442383,38.708191 241.880020,38.373516 242.597260,37.952675 
	C242.373245,38.409267 241.869629,38.952026 241.185379,39.268822 
z"/>
<path fill="#A9A9FE" opacity="1.000000" stroke="none" 
	d="
M43.301102,16.850098 
	C42.801723,16.786194 42.495659,16.573355 42.096680,16.089191 
	C42.500645,16.112299 42.997532,16.406731 43.301102,16.850098 
z"/>
<path fill="#A9A9FE" opacity="1.000000" stroke="none" 
	d="
M41.348717,20.998512 
	C41.452404,20.364784 41.879398,19.699749 42.634476,19.002375 
	C42.532379,19.635759 42.102203,20.301483 41.348717,20.998512 
z"/>
<path fill="#6A6AFF" opacity="1.000000" stroke="none" 
	d="
M36.459492,24.248938 
	C36.845470,24.049379 37.101421,24.020746 37.743813,24.000534 
	C38.104336,24.208126 38.078419,24.407301 37.894615,24.863213 
	C37.267643,24.886585 36.798550,24.653225 36.459492,24.248938 
z"/>
<path fill="#DCDCDC" opacity="1.000000" stroke="none" 
	d="
M177.424576,28.194363 
	C178.160416,30.146795 179.352402,32.478996 178.639572,33.690205 
	C177.947327,34.866482 175.305450,35.186047 173.509140,35.214531 
	C173.068039,35.221523 172.212387,32.633411 172.197098,31.231279 
	C172.161057,27.924606 174.524719,27.755186 177.424576,28.194363 
z"/>
<path fill="#E7E7FE" opacity="1.000000" stroke="none" 
	d="
M34.203438,27.516466 
	C34.256756,29.654274 34.678394,31.600557 34.070366,33.140213 
	C33.466709,34.668793 31.826845,35.788162 30.265089,37.260738 
	C27.028248,35.120102 21.520163,35.627197 21.959332,29.158676 
	C22.290140,26.900837 22.522425,25.385693 22.754711,23.870546 
	C24.598888,19.377144 29.331640,18.903620 32.487156,23.037886 
	C33.348148,24.165936 33.592991,25.764267 34.203438,27.516466 
z"/>
<path fill="#6A6AFF" opacity="1.000000" stroke="none" 
	d="
M22.434475,23.940434 
	C22.522425,25.385693 22.290140,26.900837 21.894770,28.772726 
	C18.746357,27.190462 20.827494,25.630074 22.434475,23.940434 
z"/>
</svg>